<?xml version="1.0" encoding="UTF-8" standalone="no" ?>
<!DOCTYPE svg PUBLIC "-//W3C//DTD SVG 1.1//EN" "http://www.w3.org/Graphics/SVG/1.1/DTD/svg11.dtd">
<svg xmlns="http://www.w3.org/2000/svg" xmlns:xlink="http://www.w3.org/1999/xlink" version="1.1" width="1080" height="1080" viewBox="0 0 1080 1080" xml:space="preserve">
<desc>Created with Fabric.js 5.2.4</desc>
<defs>
</defs>
<rect x="0" y="0" width="100%" height="100%" fill="transparent"></rect>
<g transform="matrix(1 0 0 1 540 540)" id="04fa7bc4-de0a-4505-8ee1-f0f3c66e54ca"  >
<rect style="stroke: none; stroke-width: 1; stroke-dasharray: none; stroke-linecap: butt; stroke-dashoffset: 0; stroke-linejoin: miter; stroke-miterlimit: 4; fill: rgb(255,255,255); fill-rule: nonzero; opacity: 1; visibility: hidden;" vector-effect="non-scaling-stroke"  x="-540" y="-540" rx="0" ry="0" width="1080" height="1080" />
</g>
<g transform="matrix(1 0 0 1 540 540)" id="4ce2baa5-f48d-43c3-93c9-74f8dd9036ad"  >
</g>
<g transform="matrix(2.91 0 0 2.91 539.5 539.5)"  >
<path style="stroke: rgb(0,0,0); stroke-width: 0; stroke-dasharray: none; stroke-linecap: butt; stroke-dashoffset: 0; stroke-linejoin: miter; stroke-miterlimit: 4; fill: rgb(231,157,0); fill-rule: nonzero; opacity: 1;" vector-effect="non-scaling-stroke"  transform=" translate(-171.43, -171.43)" d="M 0 171.426 C 0 76.74999999999999 76.75 0 171.426 0 C 266.102 0 342.852 76.75 342.852 171.426 C 342.852 266.102 266.102 342.852 171.426 342.852 C 76.74999999999999 342.852 0 266.102 0 171.426 z M 171.426 330.147 C 259.085 330.147 330.147 259.085 330.147 171.426 C 330.147 83.76699999999998 259.085 12.704999999999984 171.426 12.704999999999984 C 83.76699999999998 12.704999999999984 12.704999999999984 83.76699999999998 12.704999999999984 171.426 C 12.704999999999984 259.085 83.76699999999998 330.147 171.426 330.147 z" stroke-linecap="round" />
</g>
<g transform="matrix(2.91 0 0 2.91 540 540)"  >
<ellipse style="stroke: rgb(0,0,0); stroke-opacity: 0; stroke-width: 0; stroke-dasharray: none; stroke-linecap: butt; stroke-dashoffset: 0; stroke-linejoin: miter; stroke-miterlimit: 4; fill: rgb(255,173,0); fill-rule: nonzero; opacity: 1;" vector-effect="non-scaling-stroke"  cx="0" cy="0" rx="164.56874808852186" ry="164.56874808852186" />
</g>
<g transform="matrix(10.19 0 0 10.19 539.5 539.5)" id="text-0"  >
<path style="stroke: rgb(255,255,255); stroke-opacity: 0; stroke-width: 0; stroke-dasharray: none; stroke-linecap: butt; stroke-dashoffset: 0; stroke-linejoin: miter; stroke-miterlimit: 4; fill: rgb(0,0,0); fill-rule: nonzero; opacity: 1;" vector-effect="non-scaling-stroke"  transform=" translate(-34.45, 19.83)" d="M 25.15 -2.1 L 25.15 -37.55 Q 25.15 -39.95 28.1 -39.95 L 28.1 -39.95 Q 31.1 -39.95 31.1 -37.55 L 31.1 -37.55 L 31.1 -2.1 Q 31.1 0.3 28.1 0.3 L 28.1 0.3 Q 25.15 0.3 25.15 -2.1 L 25.15 -2.1 Z M 9.95 -37.55 L 9.95 -2.1 Q 9.95 0.3 6.95 0.3 L 6.95 0.3 Q 4 0.3 4 -2.1 L 4 -2.1 L 4 -37.55 Q 4 -39.95 6.95 -39.95 L 6.95 -39.95 Q 9.95 -39.95 9.95 -37.55 L 9.95 -37.55 Z M 21.65 -20.65 L 21.65 -20.65 Q 21.65 -18.9 20.45 -17.7 Q 19.25 -16.5 17.5 -16.5 L 17.5 -16.5 Q 15.8 -16.5 14.6 -17.7 Q 13.4 -18.9 13.4 -20.65 L 13.4 -20.65 Q 13.4 -22.4 14.6 -23.6 Q 15.8 -24.8 17.5 -24.8 L 17.5 -24.8 Q 19.25 -24.8 20.45 -23.6 Q 21.65 -22.4 21.65 -20.65 Z M 58.95 -8.4 L 58.95 -18.05 Q 58.95 -20.5 61.95 -20.5 L 61.95 -20.5 Q 64.9 -20.5 64.9 -18.15 L 64.9 -18.15 L 64.9 -8 Q 64.9 -3.95 62.2 -1.95 L 62.2 -1.95 Q 60.9 -1 59.52 -0.48 Q 58.15 0.05 56.85 0.05 L 56.85 0.05 L 46.45 0.05 Q 45.15 0.05 43.77 -0.48 Q 42.4 -1 41.1 -1.95 L 41.1 -1.95 Q 39.8 -2.95 39.1 -4.42 Q 38.4 -5.9 38.4 -8 L 38.4 -8 L 38.4 -31.75 Q 38.4 -33.8 39.12 -35.3 Q 39.85 -36.8 41.1 -37.75 L 41.1 -37.75 L 41.05 -37.75 Q 42.35 -38.6 43.75 -39.15 Q 45.15 -39.7 46.45 -39.7 L 46.45 -39.7 L 56.35 -39.7 Q 57.65 -39.7 59.05 -39.15 Q 60.45 -38.6 61.75 -37.75 L 61.75 -37.75 L 61.7 -37.75 Q 64.35 -35.8 64.35 -31.75 L 64.35 -31.75 L 64.35 -28.3 Q 64.35 -25.9 61.4 -25.9 L 61.4 -25.9 Q 58.45 -25.9 58.45 -28.3 L 58.45 -28.3 L 58.45 -31.3 Q 58.45 -32.55 57.7 -33.6 Q 56.95 -34.65 55.1 -34.65 L 55.1 -34.65 L 47.75 -34.65 Q 45.85 -34.65 45.1 -33.6 Q 44.35 -32.55 44.35 -31.3 L 44.35 -31.3 L 44.35 -8.4 Q 44.35 -7.75 44.52 -7.15 Q 44.7 -6.55 45.1 -6.08 Q 45.5 -5.6 46.15 -5.3 Q 46.8 -5 47.75 -5 L 47.75 -5 L 55.6 -5 Q 57.45 -5 58.2 -6.05 Q 58.95 -7.1 58.95 -8.4 L 58.95 -8.4 Z M 56.6 -18.6 L 56.6 -18.6 Q 56.6 -17.75 56.27 -16.98 Q 55.95 -16.2 55.37 -15.65 Q 54.8 -15.1 54.05 -14.78 Q 53.3 -14.45 52.4 -14.45 L 52.4 -14.45 Q 50.7 -14.45 49.5 -15.65 Q 48.3 -16.85 48.3 -18.6 L 48.3 -18.6 Q 48.3 -20.3 49.5 -21.5 Q 50.7 -22.7 52.4 -22.7 L 52.4 -22.7 Q 53.3 -22.7 54.05 -22.38 Q 54.8 -22.05 55.37 -21.5 Q 55.95 -20.95 56.27 -20.2 Q 56.6 -19.45 56.6 -18.6 Z" stroke-linecap="round" />
</g>
<g transform="matrix(NaN NaN NaN NaN 0 0)"  >
<g style=""   >
</g>
</g>
<g transform="matrix(NaN NaN NaN NaN 0 0)"  >
<g style=""   >
</g>
</g>
<g transform="matrix(NaN NaN NaN NaN 0 0)"  >
<g style=""   >
</g>
</g>
<g transform="matrix(NaN NaN NaN NaN 0 0)"  >
<g style=""   >
</g>
</g>
<g transform="matrix(NaN NaN NaN NaN 0 0)"  >
<g style=""   >
</g>
</g>
<g transform="matrix(NaN NaN NaN NaN 0 0)"  >
<g style=""   >
</g>
</g>
<g transform="matrix(NaN NaN NaN NaN 0 0)"  >
<g style=""   >
</g>
</g>
<g transform="matrix(NaN NaN NaN NaN 0 0)"  >
<g style=""   >
</g>
</g>
<g transform="matrix(NaN NaN NaN NaN 0 0)"  >
<g style=""   >
</g>
</g>
</svg>